<mxfile host="65bd71144e">
    <diagram id="OFFkSIdZj8pAvc7_iyBc" name="第 1 页">
        <mxGraphModel dx="635" dy="396" grid="1" gridSize="10" guides="1" tooltips="1" connect="1" arrows="1" fold="1" page="1" pageScale="1" pageWidth="827" pageHeight="1169" math="0" shadow="0">
            <root>
                <mxCell id="0"/>
                <mxCell id="1" parent="0"/>
                <mxCell id="2" value="Cross-Functional Flowchart" style="shape=table;childLayout=tableLayout;startSize=30;collapsible=0;recursiveResize=0;expand=0;fontStyle=1;fillColor=#3da278;strokeColor=#18141D;fontColor=#FFFFFF;" vertex="1" parent="1">
                    <mxGeometry x="60" y="170" width="750" height="420" as="geometry"/>
                </mxCell>
                <mxCell id="3" value="Actor 1" style="shape=tableRow;horizontal=0;startSize=40;swimlaneHead=0;swimlaneBody=0;top=0;left=0;bottom=0;right=0;dropTarget=0;fillColor=#3da278;collapsible=0;recursiveResize=0;expand=0;fontStyle=1;strokeColor=#18141D;fontColor=#FFFFFF;" vertex="1" parent="2">
                    <mxGeometry y="30" width="750" height="123" as="geometry"/>
                </mxCell>
                <mxCell id="4" value="Phase 1" style="swimlane;swimlaneHead=0;swimlaneBody=0;fontStyle=0;connectable=0;fillColor=#3da278;startSize=40;collapsible=0;recursiveResize=0;expand=0;fontStyle=1;strokeColor=#18141D;fontColor=#FFFFFF;" vertex="1" parent="3">
                    <mxGeometry x="40" width="181" height="123" as="geometry">
                        <mxRectangle width="181" height="123" as="alternateBounds"/>
                    </mxGeometry>
                </mxCell>
                <mxCell id="5" value="Phase 2" style="swimlane;swimlaneHead=0;swimlaneBody=0;fontStyle=0;connectable=0;fillColor=#3da278;startSize=40;collapsible=0;recursiveResize=0;expand=0;fontStyle=1;strokeColor=#18141D;fontColor=#FFFFFF;" vertex="1" parent="3">
                    <mxGeometry x="221" width="182" height="123" as="geometry">
                        <mxRectangle width="182" height="123" as="alternateBounds"/>
                    </mxGeometry>
                </mxCell>
                <mxCell id="6" value="Phase 3" style="swimlane;swimlaneHead=0;swimlaneBody=0;fontStyle=0;connectable=0;fillColor=#3da278;startSize=40;collapsible=0;recursiveResize=0;expand=0;fontStyle=1;strokeColor=#18141D;fontColor=#FFFFFF;" vertex="1" parent="3">
                    <mxGeometry x="403" width="347" height="123" as="geometry">
                        <mxRectangle width="347" height="123" as="alternateBounds"/>
                    </mxGeometry>
                </mxCell>
                <mxCell id="7" value="Actor 2" style="shape=tableRow;horizontal=0;startSize=40;swimlaneHead=0;swimlaneBody=0;top=0;left=0;bottom=0;right=0;dropTarget=0;fillColor=#3da278;collapsible=0;recursiveResize=0;expand=0;fontStyle=1;strokeColor=#18141D;fontColor=#FFFFFF;" vertex="1" parent="2">
                    <mxGeometry y="153" width="750" height="123" as="geometry"/>
                </mxCell>
                <mxCell id="8" value="" style="swimlane;swimlaneHead=0;swimlaneBody=0;fontStyle=0;connectable=0;fillColor=#3da278;startSize=0;collapsible=0;recursiveResize=0;expand=0;fontStyle=1;strokeColor=#18141D;fontColor=#FFFFFF;" vertex="1" parent="7">
                    <mxGeometry x="40" width="181" height="123" as="geometry">
                        <mxRectangle width="181" height="123" as="alternateBounds"/>
                    </mxGeometry>
                </mxCell>
                <mxCell id="9" value="" style="swimlane;swimlaneHead=0;swimlaneBody=0;fontStyle=0;connectable=0;fillColor=#3da278;startSize=0;collapsible=0;recursiveResize=0;expand=0;fontStyle=1;strokeColor=#18141D;fontColor=#FFFFFF;" vertex="1" parent="7">
                    <mxGeometry x="221" width="182" height="123" as="geometry">
                        <mxRectangle width="182" height="123" as="alternateBounds"/>
                    </mxGeometry>
                </mxCell>
                <mxCell id="10" value="" style="swimlane;swimlaneHead=0;swimlaneBody=0;fontStyle=0;connectable=0;fillColor=#3da278;startSize=0;collapsible=0;recursiveResize=0;expand=0;fontStyle=1;strokeColor=#18141D;fontColor=#FFFFFF;" vertex="1" parent="7">
                    <mxGeometry x="403" width="347" height="123" as="geometry">
                        <mxRectangle width="347" height="123" as="alternateBounds"/>
                    </mxGeometry>
                </mxCell>
                <mxCell id="11" value="Actor 3" style="shape=tableRow;horizontal=0;startSize=40;swimlaneHead=0;swimlaneBody=0;top=0;left=0;bottom=0;right=0;dropTarget=0;fillColor=#3da278;collapsible=0;recursiveResize=0;expand=0;fontStyle=1;strokeColor=#18141D;fontColor=#FFFFFF;" vertex="1" parent="2">
                    <mxGeometry y="276" width="750" height="144" as="geometry"/>
                </mxCell>
                <mxCell id="12" value="" style="swimlane;swimlaneHead=0;swimlaneBody=0;fontStyle=0;connectable=0;fillColor=#3da278;startSize=0;collapsible=0;recursiveResize=0;expand=0;fontStyle=1;strokeColor=#18141D;fontColor=#FFFFFF;" vertex="1" parent="11">
                    <mxGeometry x="40" width="181" height="144" as="geometry">
                        <mxRectangle width="181" height="144" as="alternateBounds"/>
                    </mxGeometry>
                </mxCell>
                <mxCell id="13" value="" style="swimlane;swimlaneHead=0;swimlaneBody=0;fontStyle=0;connectable=0;fillColor=#3da278;startSize=0;collapsible=0;recursiveResize=0;expand=0;fontStyle=1;strokeColor=#18141D;fontColor=#FFFFFF;" vertex="1" parent="11">
                    <mxGeometry x="221" width="182" height="144" as="geometry">
                        <mxRectangle width="182" height="144" as="alternateBounds"/>
                    </mxGeometry>
                </mxCell>
                <mxCell id="14" value="" style="swimlane;swimlaneHead=0;swimlaneBody=0;fontStyle=0;connectable=0;fillColor=#3da278;startSize=0;collapsible=0;recursiveResize=0;expand=0;fontStyle=1;strokeColor=#18141D;fontColor=#FFFFFF;" vertex="1" parent="11">
                    <mxGeometry x="403" width="347" height="144" as="geometry">
                        <mxRectangle width="347" height="144" as="alternateBounds"/>
                    </mxGeometry>
                </mxCell>
            </root>
        </mxGraphModel>
    </diagram>
</mxfile>